<svg width="362" height="118" viewBox="0 0 362 118" fill="none" xmlns="http://www.w3.org/2000/svg">
<ellipse cx="50.2517" cy="55.9396" rx="41.958" ry="45.5235" stroke="white" stroke-opacity="0.87" stroke-width="4" stroke-miterlimit="0" stroke-linecap="round"/>
<path d="M61.4406 47.906C64.191 45.6778 73.0534 44.5246 76.1259 47.0137" stroke="white" stroke-opacity="0.87" stroke-width="3" stroke-linecap="round" stroke-linejoin="round"/>
<path d="M29.5049 57.6439C25.4109 57.6439 26.8263 67.7932 32.8501 66.9881C39.0246 66.1628 36.0967 55.3079 29.8766 57.3403" stroke="white" stroke-opacity="0.87" stroke-width="3" stroke-linecap="round" stroke-linejoin="round"/>
<path d="M22.979 50.2013C25.7295 47.9731 34.5919 46.8199 37.6643 49.309" stroke="white" stroke-opacity="0.87" stroke-width="3" stroke-linecap="round" stroke-linejoin="round"/>
<path d="M67.9665 55.3913C63.8725 55.3913 65.2879 66.3214 71.3117 65.4543C77.4862 64.5655 74.5583 52.8757 68.3382 55.0643" stroke="white" stroke-opacity="0.87" stroke-width="3" stroke-linecap="round" stroke-linejoin="round"/>
<path d="M40.4615 80.6113C40.7637 80.8682 41.0559 81.0597 41.3158 81.3645C42.9185 83.2441 45.5486 83.6484 48.1259 83.8124C54.0234 84.1876 62.5688 82.6557 64.2378 76.9799" stroke="white" stroke-opacity="0.87" stroke-width="3" stroke-linecap="round" stroke-linejoin="round"/>
<path d="M25.3653 20.5587C22.7987 23.5961 20.3549 26.7855 18.3291 30.1141C17.5856 31.3356 16.8504 32.6132 16.4548 33.9573C16.3931 34.1669 16.0951 36.2179 16.3319 36.0024C17.0587 35.3411 17.5398 34.1123 17.9911 33.3403C19.6109 30.5689 21.2634 27.8148 22.9277 25.0631C23.6454 23.8765 24.5017 22.681 25.0682 21.4314C25.1523 21.246 23.1589 23.5086 22.8457 23.9084C19.0396 28.7681 15.4232 33.9041 12.7882 39.3168C12.2261 40.4713 10.8807 42.5247 11.1188 43.8564C11.1307 43.9235 13.3257 40.8302 13.5461 40.4274C16.0041 35.9361 18.1243 31.2553 20.91 26.9054C21.0684 26.6582 23.0844 23.4588 21.924 25.4069C19.994 28.6468 18.2076 31.9578 16.4548 35.2707C15.4697 37.1326 14.5363 39.0113 13.71 40.9299C13.5933 41.2008 12.4621 43.7413 13.4027 42.1023C16.6103 36.5128 19.2465 30.7158 22.6204 25.1865C23.9818 22.9555 25.3462 20.4002 27.3317 18.5049C27.6077 18.2414 27.8847 17.993 27.7926 18.5401C27.5504 19.9783 26.7147 21.4669 26.1027 22.7977C24.0124 27.3431 21.5344 31.775 19.9985 36.496C18.8997 39.8734 23.9034 30.3383 25.7749 27.2228C27.0356 25.1241 28.3153 23.032 29.6054 20.9466C29.8132 20.6107 32.1002 16.8468 30.8754 19.3423C28.8147 23.5409 26.1678 27.7242 24.7917 32.1415C23.4674 36.3926 29.8391 24.4847 32.2683 20.6116C33.1777 19.1618 34.1623 17.7459 35.136 16.3276C35.2536 16.1564 35.5909 15.6433 35.5252 15.834C35.1913 16.804 34.6009 17.7925 34.1323 18.7076C31.9286 23.0117 28.8537 27.177 27.1883 31.6655C25.8929 35.1569 31.1526 25.1768 33.0365 21.8898C34.0748 20.0781 35.0697 18.2253 36.2319 16.4686C36.3317 16.3179 36.6349 15.8909 36.6109 16.0632C36.4998 16.8597 35.9769 17.8011 35.6686 18.5313C34.7768 20.6437 33.7697 22.7179 32.8623 24.8251C32.2493 26.2489 31.3261 27.9325 31.3261 29.4882C31.3261 29.5348 31.2857 30.0669 31.6026 29.8143C31.8922 29.5835 32.3555 28.7284 32.4527 28.5626C34.3394 25.343 36.0829 22.0604 37.8604 18.7958C38.6259 17.3899 39.3274 15.6195 40.4618 14.3707C41.4485 13.2845 39.6954 17.0521 39.1714 18.355C38.2038 20.7608 37.2551 23.1559 36.4265 25.6008C35.9174 27.1033 35.07 28.7157 34.8288 30.2727C34.7111 31.0321 35.7042 28.9328 36.0271 28.2189C37.5699 24.8073 38.8786 21.3172 40.3389 17.879C40.8411 16.6968 42.8889 13.4454 41.8547 14.3355C40.782 15.2587 40.3947 17.9486 40.0112 19.1131C39.3517 21.1156 38.7239 23.1261 38.2086 25.1601C38.1309 25.4667 37.1457 28.3606 37.6146 28.6155C37.7934 28.7127 39.3944 24.3415 39.4274 24.2434C40.4702 21.1469 41.2964 17.9695 42.6331 14.9525C42.6695 14.8704 43.9159 11.9683 43.6368 13.7008C43.2528 16.085 42.6866 18.4547 42.2439 20.832C41.9689 22.3092 41.6807 23.7861 41.4246 25.2659C41.3788 25.5303 41.0557 27.899 41.6704 26.4294C42.3999 24.6854 42.8933 22.8611 43.5139 21.0876C44.4023 18.5491 45.1044 15.4295 46.7504 13.1543C47.1231 12.639 46.7037 16.4112 46.6684 16.6449C46.2599 19.3526 45.9085 22.0693 45.4599 24.7722C45.3138 25.6522 44.9478 26.638 44.9478 27.5313C44.9478 28.7625 45.3734 25.0958 45.5418 23.8731C45.8428 21.6885 46.189 19.5029 46.607 17.3325C46.6535 17.0909 47.5829 13.3056 47.7438 14.0446C48.534 17.6717 47.3279 21.7569 47.3034 25.4245C47.2806 28.8482 48.0717 22.8334 48.1228 22.1895C48.2892 20.0931 48.3985 17.9998 48.7066 15.9133C48.7687 15.4923 49.7535 11.7372 49.8434 11.9554C50.3089 13.0856 50.1742 14.6115 50.2121 15.7811C50.2947 18.3223 50.2106 20.8646 50.2634 23.4059C50.2777 24.0988 50.3431 24.7805 50.4272 25.4686C50.5084 26.1321 50.4446 24.1342 50.4784 23.4676C50.5859 21.3499 50.7759 19.2323 50.9905 17.1209C51.0465 16.5709 51.1742 15.3396 51.2568 14.7321C51.2853 14.5229 51.1372 14.195 51.3592 14.1063C51.5473 14.0311 51.5066 14.4419 51.5436 14.6175C51.6913 15.3192 51.7992 16.0267 51.9123 16.7331C52.4467 20.0714 52.8335 23.429 53.3871 26.7644C53.5359 27.6607 53.3391 24.954 53.295 24.0494C53.2504 23.1362 53.5087 13.6945 54.3499 13.8947C55.1568 14.0868 55.643 16.8688 55.7837 17.3325C56.4337 19.4736 57.1054 21.6365 57.5351 23.8202C57.8529 25.4355 58.1143 27.0596 58.4159 28.6772C58.6112 29.7246 58.4742 29.2548 58.3237 28.5979C57.3997 24.5648 56.479 20.585 55.9988 16.4863C55.5028 12.253 57.7778 17.2459 58.2213 18.5842C59.4156 22.1881 60.622 25.7314 62.6663 29.0651C63.1951 29.9275 62.8784 28.8741 62.7892 28.545C62.2919 26.7106 61.6869 24.901 61.13 23.0798C60.5597 21.2144 60.0034 19.3448 59.5016 17.4647C59.4823 17.3926 58.6529 14.2458 59.1841 14.8291C61.4619 17.3304 63.1117 20.3404 65.1653 22.9916C65.4584 23.37 67.2552 26.3635 65.8823 24.7017C63.878 22.276 61.8143 19.498 60.6487 16.689C60.4845 16.2933 60.42 15.8585 61.0378 16.213C62.6353 17.1296 63.8005 18.6693 64.8171 20.0299C65.9832 21.5904 67.1154 23.1395 68.4018 24.6312C69.4737 25.8743 70.8488 27.1565 71.546 28.6067C72.6874 30.9807 68.6399 24.1097 67.439 21.7576C67.2598 21.4065 64.9987 17.3267 65.534 16.9975C65.5758 16.9718 67.8208 20.2426 67.8692 20.3119C71.1944 25.0818 74.4348 29.9842 78.1931 34.5127C78.4369 34.8065 79.2382 35.4907 79.2275 35.1297C79.1815 33.5845 78.0244 31.8625 77.3942 30.4666C77.0433 29.6895 73.2893 20.7413 74.6596 20.929C76.2876 21.1519 77.3684 23.797 77.9472 24.8251C79.5801 27.7253 81.2083 30.6308 82.8122 33.543C83.6057 34.9839 84.5143 36.479 84.922 38.0474C85.3648 39.7513 84.4701 37.6435 84.3587 37.2365C83.8748 35.4683 83.4528 33.6749 83.1501 31.877C83.001 30.9912 82.0385 27.7685 82.9351 26.9583C83.6308 26.3296 84.292 28.2836 84.6864 29.0827C86.0766 31.8989 87.2074 34.8366 88.2301 37.7654C89.5776 41.6241 90.3469 45.4408 90.8111 49.4362" stroke="white" stroke-opacity="0.87" stroke-width="3" stroke-linecap="round" stroke-linejoin="round"/>
<path d="M8.63307 67.3189C8.30924 66.4938 7.89948 65.6409 6.70953 65.5134C4.15064 65.2391 2.37539 70.7235 2.09304 72.1337C1.52462 74.9726 3.59545 78.841 7.35746 79.2527C9.55273 79.4928 11.5401 77.7594 13.1888 76.7593" stroke="white" stroke-opacity="0.87" stroke-width="3" stroke-linecap="round" stroke-linejoin="round"/>
<path d="M92.5169 59.9659C90.9035 59.2872 94.2301 57.5643 94.7792 57.329C97.5682 56.1338 100.706 59.6639 101.465 61.519C102.952 65.1538 101.207 69.2414 97.8835 71.6911C95.4899 73.4554 91.9237 75.1292 89.4126 72.7151" stroke="white" stroke-opacity="0.87" stroke-width="3" stroke-linecap="round" stroke-linejoin="round"/>
<path d="M19.8324 35.6683C21.1039 33.4391 18.5206 36.7109 18.2039 37.2575C14.4067 43.8091 11.1361 51.3407 9.69238 58.6174" stroke="white" stroke-opacity="0.87" stroke-width="3" stroke-linecap="round" stroke-linejoin="round"/>
<path d="M15.2771 38.5991C18.4996 31.4869 9.69238 53.3169 9.69238 60.9127" stroke="white" stroke-opacity="0.87" stroke-width="3" stroke-linecap="round" stroke-linejoin="round"/>
<path d="M11.7902 40.2551C10.9286 42.4895 10.7312 45.0524 10.2362 47.3607C9.59555 50.3479 8.82814 53.3193 8.2937 56.3222" stroke="white" stroke-opacity="0.87" stroke-width="3" stroke-linecap="round" stroke-linejoin="round"/>
<path d="M26.6785 24.188C24.949 21.1647 34.8198 14.4223 35.472 15.3724C36.202 16.4357 32.7145 20.013 32.1578 21.103C31.04 23.2912 35.0633 17.0366 36.6109 15.0585C36.6202 15.0467 37.2075 14.3022 37.2882 14.1796C37.3557 14.077 37.0848 14.3378 37.0008 14.4307C35.8406 15.7152 34.8668 17.1502 34.0457 18.6188C33.5674 19.4744 33.1642 20.6143 34.6819 19.6681C36.6936 18.4138 38.4215 16.7611 40.2535 15.3186C42.7676 13.339 48.7723 8.17971 52.5973 10.0543C55.1839 11.322 56.5189 14.9198 58.2099 16.9239C59.3718 18.3008 60.5227 19.2597 62.1398 20.1524" stroke="white" stroke-opacity="0.87" stroke-width="3" stroke-linecap="round" stroke-linejoin="round"/>
<path d="M62.8392 15.7965C65.6808 15.5084 67.729 17.8031 69.366 19.3338C72.1453 21.9326 74.7329 24.6608 77.5245 27.2483" stroke="white" stroke-opacity="0.87" stroke-width="3" stroke-linecap="round" stroke-linejoin="round"/>
<path d="M74.028 20.3625C78.4009 23.985 81.2821 28.7006 83.8182 33.3692" stroke="white" stroke-opacity="0.87" stroke-width="3" stroke-linecap="round" stroke-linejoin="round"/>
<path d="M77.5761 24.7045C77.111 23.1004 79.9454 25.734 80.0208 25.8448C83.058 30.314 84.9825 35.4881 87.3147 40.255" stroke="white" stroke-opacity="0.87" stroke-width="3" stroke-linecap="round" stroke-linejoin="round"/>
<path d="M41.6133 11.154C40.8874 11.2962 40.1672 11.4537 39.451 11.6305C37.7019 12.0621 40.6227 11.084 40.7817 11.0166C42.9198 10.1099 45.0555 9.17839 47.1439 8.18544C47.3213 8.10108 51.4087 6.22761 49.93 5.89487C48.4057 5.55188 46.2185 6.56685 44.8776 7.05848C42.8999 7.78359 39.9659 8.86519 38.952 10.6867C38.383 11.709 39.8732 11.8853 40.6361 11.7221C42.4372 11.3367 44.7015 10.3398 45.8964 9.0467C46.953 7.90334 45.3647 7.86191 44.4098 8.01136C41.8192 8.41679 39.2217 9.4328 36.8624 10.4302C36.0282 10.7829 32.9991 11.796 32.964 12.8949C32.9194 14.2906 38.5062 12.4219 38.8688 12.3085C41.3192 11.5417 43.826 10.6753 46.1043 9.55978C48.2613 8.50365 43.0552 10.0327 42.7777 10.1462C39.1577 11.6267 35.1252 13.4637 32.0699 15.7718" stroke="white" stroke-opacity="0.87" stroke-width="3" stroke-linecap="round" stroke-linejoin="round"/>
<path d="M43.2483 10.4161C45.4161 8.43091 45.1084 6.61316 42.1442 5.26513C37.3011 3.06263 31.3373 4.83179 27.874 8.35571" stroke="white" stroke-opacity="0.87" stroke-width="3" stroke-linecap="round" stroke-linejoin="round"/>
<path d="M43.9085 4.86817C44.2017 4.38478 43.1118 4.06632 42.7505 3.95599C40.3856 3.23381 37.6884 3.48343 35.4094 4.30552C30.4573 6.09181 25.9238 9.53537 22.5882 12.984C20.8484 14.7828 19.3593 16.5762 18.7832 18.8322" stroke="white" stroke-opacity="0.87" stroke-width="3" stroke-linecap="round" stroke-linejoin="round"/>
<path d="M36.2658 8.12079C33.1137 8.85413 30.7837 10.8721 28.7341 12.9374C25.2654 16.4325 22.9406 19.678 22.2798 24.1879" stroke="white" stroke-opacity="0.87" stroke-width="3" stroke-linecap="round" stroke-linejoin="round"/>
<path d="M29.9721 9.65106C28.6982 9.65106 27.9455 10.4728 27.2443 11.3933C24.4955 15.0016 23.1203 19.3015 21.5804 23.4229" stroke="white" stroke-opacity="0.87" stroke-width="3" stroke-linecap="round" stroke-linejoin="round"/>
<path d="M20.881 90.7517C20.1692 92.9377 20.2194 95.5356 19.9832 97.8043C19.6704 100.807 19.4824 103.8 19.4824 106.819" stroke="white" stroke-opacity="0.87" stroke-width="3" stroke-linecap="round" stroke-linejoin="round"/>
<path d="M26.4756 96.8726C26.4756 102.15 24.7178 106.717 22.2798 111.409" stroke="white" stroke-opacity="0.87" stroke-width="3" stroke-linecap="round" stroke-linejoin="round"/>
<path d="M29.2727 99.1678C29.2727 103.806 26.2899 107.733 23.6783 111.409" stroke="white" stroke-opacity="0.87" stroke-width="3" stroke-linecap="round" stroke-linejoin="round"/>
<path d="M34.1678 100.698C34.1678 101.594 32.5311 103.142 32.0357 103.838C29.6387 107.206 26.9579 110.43 24.3776 113.705" stroke="white" stroke-opacity="0.87" stroke-width="3" stroke-linecap="round" stroke-linejoin="round"/>
<path d="M41.1608 5.42305C43.4425 3.8941 46.8438 1.59129 49.8568 2.06237C53.5535 2.64036 54.293 6.89126 54.4475 9.65101" stroke="white" stroke-opacity="0.87" stroke-width="3" stroke-linecap="round" stroke-linejoin="round"/>
<path d="M48.8531 5.8255C49.9482 6.73069 50.8257 7.72397 51.6504 8.8859" stroke="white" stroke-opacity="0.87" stroke-width="3" stroke-linecap="round" stroke-linejoin="round"/>
<path d="M26.4755 10.4161C25.1468 13.0813 24.4397 15.9687 23.6783 18.8322" stroke="white" stroke-opacity="0.87" stroke-width="3" stroke-linecap="round" stroke-linejoin="round"/>
<path d="M19.4824 17.302C18.3081 20.3855 17.6749 23.2427 17.3845 26.4832" stroke="white" stroke-opacity="0.87" stroke-width="3" stroke-linecap="round" stroke-linejoin="round"/>
<path d="M20.8812 99.9329C19.475 99.9329 18.3093 104.57 18.0042 105.294C16.607 108.606 15.1088 111.873 13.8882 115.235" stroke="white" stroke-opacity="0.87" stroke-width="3" stroke-linecap="round" stroke-linejoin="round"/>
<path d="M27.9931 102.228C29.2079 102.757 28.2021 104.08 27.7923 104.836C26.3142 107.561 25.1128 109.993 24.3776 112.94" stroke="white" stroke-opacity="0.87" stroke-width="3" stroke-linecap="round" stroke-linejoin="round"/>
<path d="M34.1679 103.758C32.2728 109.491 26.6703 114.275 20.1819 116" stroke="white" stroke-opacity="0.87" stroke-width="3" stroke-linecap="round" stroke-linejoin="round"/>
<path d="M68.5879 21.1275C68.9422 20.2106 69.7353 20.091 70.7372 20.333C72.2764 20.7048 69.7663 19.0081 69.3043 18.5821C67.5945 17.0056 66.2593 16.6914 63.9992 16.3015C63.2304 16.1689 62.6226 14.7413 62.1399 14.2416" stroke="white" stroke-opacity="0.87" stroke-width="3" stroke-linecap="round" stroke-linejoin="round"/>
<path d="M57.944 15.7718C60.3183 17.3026 61.5497 20.2887 62.7896 22.4877C64.6508 25.7884 66.0587 29.2432 67.7342 32.604" stroke="white" stroke-opacity="0.87" stroke-width="3" stroke-linecap="round" stroke-linejoin="round"/>
<path d="M62.1775 16.5369C61.9402 16.5369 62.8968 16.5649 63.0389 16.6228C65.948 17.8091 68.3382 20.6077 70.294 22.7202C73.0582 25.7059 75.4848 29.0354 77.5822 32.3958C78.2227 33.4221 79.6161 36.7136 79.0399 35.6592C77.8627 33.5052 77.429 30.9303 76.7209 28.6458C76.6179 28.3136 74.6058 22.6433 76.6215 24.5236C81.7421 29.3003 85.5719 35.9277 88.7133 41.7852" stroke="white" stroke-opacity="0.87" stroke-width="3" stroke-linecap="round" stroke-linejoin="round"/>
<path d="M79.6224 24.1879C81.9167 33.0548 86.8421 41.3703 89.4126 50.2013" stroke="white" stroke-opacity="0.87" stroke-width="3" stroke-linecap="round" stroke-linejoin="round"/>
<path d="M77.5439 30.621C77.5439 30.5247 77.4638 30.1673 77.6295 30.3699C79.3866 32.5167 81.0293 34.7399 82.6488 36.9563C84.9465 40.1006 87.0412 43.3683 88.6789 46.7801C89.016 47.4824 90.7274 50.2745 89.878 50.9664" stroke="white" stroke-opacity="0.87" stroke-width="3" stroke-linecap="round" stroke-linejoin="round"/>
<path d="M86.8983 44.2941C86.0223 41.3507 87.4508 45.9504 87.5502 46.3134C88.385 49.3627 88.9497 52.4469 89.4126 55.557" stroke="white" stroke-opacity="0.87" stroke-width="3" stroke-linecap="round" stroke-linejoin="round"/>
<path d="M11.7903 43.3154C8.0514 49.848 10.2613 59.3811 11.1998 66.2684" stroke="white" stroke-opacity="0.87" stroke-width="3" stroke-linecap="round" stroke-linejoin="round"/>
<path d="M11.7736 57.8523C10.519 58.7772 11.3536 61.9212 11.4754 62.9383C11.885 66.3607 12.4894 69.7123 12.4894 73.1543" stroke="white" stroke-opacity="0.87" stroke-width="3" stroke-linecap="round" stroke-linejoin="round"/>
<path d="M10.8351 63.2081C11.5158 63.2081 10.624 65.8606 10.6123 65.9427C10.1948 68.8557 10.4267 71.7756 10.8351 74.6846" stroke="white" stroke-opacity="0.87" stroke-width="3" stroke-linecap="round" stroke-linejoin="round"/>
<g style="mix-blend-mode:multiply" opacity="0.55">
<path d="M17.0704 63.2139L25.1241 85.8223L25.663 85.6303C26.2404 85.4246 26.7804 85.1166 27.1718 84.6449C28.4713 83.0779 31.1109 78.7884 28.6334 71.8335C27.8988 69.7714 27.8138 66.7466 27.9221 64.1719C28.0178 61.9075 25.7916 60.1072 23.656 60.8679L17.0704 63.2139ZM19.5759 76.8385L16.4229 88.4169L16.4229 88.4169L19.5759 76.8385ZM24.359 76.2974L21.2475 64.7078L24.359 76.2974ZM27.7911 74.8199L18.1953 67.6144L18.1953 67.6144L27.7911 74.8199ZM26.4402 73.925L27.1131 61.9439L26.4402 73.925ZM23.1176 74.747L18.4793 63.6796L18.4793 63.6796L23.1176 74.747ZM21.6571 75.7355L31.7437 69.2346L31.7437 69.2346L21.6571 75.7355ZM23.0689 64.0165V88.0165H23.6409C24.2539 88.0165 24.8659 87.9075 25.3929 87.5945C27.1429 86.5545 31.0689 83.3995 31.0689 76.0165C31.0689 73.8275 32.0039 70.9495 32.9699 68.5605C33.8199 66.4595 32.3269 64.0165 30.0599 64.0165H23.0689ZM17.0704 63.2139C15.9357 63.6181 13.5047 64.6597 11.4112 66.4529C10.8007 66.9758 9.75893 67.9483 8.82283 69.3912C7.92128 70.781 6.4537 73.6516 6.8478 77.4929C7.2808 81.7135 9.6766 84.5836 11.7401 86.1468C13.5826 87.5425 15.4148 88.1423 16.4229 88.4169L22.7289 65.2601C23.1958 65.3872 24.644 65.8131 26.2321 67.0161C28.0412 68.3866 30.3123 71.0453 30.7225 75.0435C31.0938 78.6624 29.7053 81.2997 28.9572 82.453C28.1745 83.6594 27.3604 84.3922 27.0243 84.6802C26.028 85.5336 25.4402 85.7097 25.1241 85.8223L17.0704 63.2139ZM16.4229 88.4169C19.5994 89.2818 22.4271 88.9582 23.9724 88.7003C25.5328 88.4399 27.0856 87.9903 27.4705 87.887L21.2475 64.7078C21.1395 64.7368 21.0334 64.7656 20.9413 64.7906C20.8443 64.817 20.7631 64.8391 20.6806 64.8614C20.5174 64.9054 20.393 64.9382 20.2847 64.9656C20.059 65.0226 19.993 65.0325 20.0221 65.0277C20.0465 65.0236 20.295 64.9817 20.7029 64.9799C21.1105 64.9781 21.8289 65.015 22.7289 65.2601L16.4229 88.4169ZM27.4705 87.887C27.5252 87.8723 27.5911 87.8553 27.7678 87.8097C27.9182 87.7708 28.1321 87.7154 28.3658 87.652C28.8213 87.5285 29.4911 87.338 30.2306 87.0754C30.9668 86.814 34.7328 85.56 37.387 82.0253L18.1953 67.6144C19.394 66.018 20.6903 65.2212 21.1775 64.9427C21.744 64.6188 22.1475 64.4775 22.1986 64.4594C22.2809 64.4301 22.2703 64.4382 22.0859 64.4882C21.9998 64.5116 21.9039 64.5366 21.7627 64.5731C21.6477 64.6028 21.4402 64.6561 21.2475 64.7078L27.4705 87.887ZM37.387 82.0253C38.4994 80.5439 39.7181 78.2184 39.8606 75.1797C40.0071 72.0583 38.9579 69.4732 37.7311 67.6758C35.6833 64.6755 32.9132 63.4658 32.2413 63.1717C30.3805 62.3576 28.4952 62.0215 27.1131 61.9439L25.7673 85.9061C24.7947 85.8515 23.8007 85.6754 22.6209 85.1592C22.2895 85.0142 19.8074 83.9879 17.9084 81.2057C16.756 79.5174 15.7465 77.0499 15.887 74.0549C16.0236 71.1426 17.1908 68.9521 18.1953 67.6144L37.387 82.0253ZM27.1131 61.9439C22.8361 61.7037 19.1298 63.407 18.4793 63.6796L27.7558 85.8144C28.1631 85.6437 28.1681 85.6565 28.0143 85.7004C27.9138 85.729 27.6781 85.7914 27.3337 85.8421C26.9921 85.8923 26.4529 85.9446 25.7673 85.9061L27.1131 61.9439ZM18.4793 63.6796C19.7476 63.1481 17.5565 64.0334 16.8484 64.387C16.4358 64.593 14.884 65.3614 13.394 66.8054C12.6551 67.5214 11.0664 69.2187 10.1997 71.9461C9.14112 75.2773 9.52542 79.0632 11.5705 82.2364L31.7437 69.2346C33.7235 72.3065 34.0978 75.9884 33.0726 79.2146C32.2392 81.8372 30.7271 83.4287 30.0963 84.04C28.8223 85.2747 27.6119 85.8381 27.5705 85.8588C27.4062 85.9408 27.2846 85.9942 27.2256 86.0195C27.1626 86.0466 27.1238 86.0617 27.1203 86.063C27.1184 86.0638 27.1244 86.0614 27.1841 86.0391C27.2015 86.0326 27.2653 86.0088 27.3264 85.9856C27.3621 85.972 27.5423 85.9039 27.7558 85.8144L18.4793 63.6796ZM11.5705 82.2364C13.3787 85.0419 15.8405 86.4409 17.5294 87.1055C19.1481 87.7424 20.5577 87.9129 21.2881 87.9748C22.0767 88.0416 22.7302 88.0287 22.998 88.0222C23.6085 88.0076 23.1189 88.0165 23.0689 88.0165V64.0165C22.8152 64.0165 22.0778 64.0374 22.4233 64.0291C22.4263 64.0291 22.7979 64.0167 23.3149 64.0605C23.7737 64.0994 24.922 64.2232 26.3168 64.7721C27.7819 65.3485 30.0572 66.618 31.7437 69.2346L11.5705 82.2364Z" fill="#FEC786"/>
</g>
<g style="mix-blend-mode:multiply" opacity="0.55">
<path d="M69.518 63.2139L77.5718 85.8223L78.1106 85.6303C78.688 85.4246 79.228 85.1166 79.6194 84.6449C80.9189 83.0779 83.5585 78.7884 81.081 71.8335C80.3464 69.7714 80.2614 66.7466 80.3697 64.1719C80.4654 61.9075 78.2392 60.1072 76.1036 60.8679L69.518 63.2139ZM72.0235 76.8385L68.8706 88.4169L68.8706 88.4169L72.0235 76.8385ZM76.8066 76.2974L73.6951 64.7078L76.8066 76.2974ZM80.2388 74.8199L70.6429 67.6144L70.6429 67.6144L80.2388 74.8199ZM78.8878 73.925L79.5607 61.9439L78.8878 73.925ZM75.5652 74.747L70.927 63.6796L70.927 63.6796L75.5652 74.747ZM74.1047 75.7355L84.1913 69.2346L84.1913 69.2346L74.1047 75.7355ZM75.5165 64.0165V88.0165H76.0885C76.7015 88.0165 77.3135 87.9075 77.8405 87.5945C79.5905 86.5545 83.5165 83.3995 83.5165 76.0165C83.5165 73.8275 84.4515 70.9495 85.4175 68.5605C86.2675 66.4595 84.7745 64.0165 82.5075 64.0165H75.5165ZM69.518 63.2139C68.3833 63.6181 65.9524 64.6597 63.8588 66.4529C63.2484 66.9758 62.2066 67.9483 61.2705 69.3912C60.3689 70.781 58.9013 73.6516 59.2954 77.4929C59.7284 81.7135 62.1242 84.5836 64.1878 86.1468C66.0302 87.5425 67.8624 88.1423 68.8706 88.4169L75.1765 65.2601C75.6434 65.3872 77.0917 65.8131 78.6797 67.0161C80.4889 68.3866 82.7599 71.0453 83.1701 75.0435C83.5414 78.6624 82.1529 81.2997 81.4048 82.453C80.6221 83.6594 79.808 84.3922 79.4719 84.6802C78.4756 85.5336 77.8878 85.7097 77.5718 85.8223L69.518 63.2139ZM68.8706 88.4169C72.047 89.2818 74.8747 88.9582 76.4201 88.7003C77.9804 88.4399 79.5332 87.9903 79.9181 87.887L73.6951 64.7078C73.5871 64.7368 73.481 64.7656 73.3889 64.7906C73.292 64.817 73.2107 64.8391 73.1282 64.8614C72.9651 64.9054 72.8406 64.9382 72.7324 64.9656C72.5066 65.0226 72.4406 65.0325 72.4697 65.0277C72.4941 65.0236 72.7426 64.9817 73.1505 64.9799C73.5581 64.9781 74.2766 65.015 75.1765 65.2601L68.8706 88.4169ZM79.9181 87.887C79.9728 87.8723 80.0388 87.8553 80.2154 87.8097C80.3658 87.7708 80.5797 87.7154 80.8135 87.652C81.269 87.5285 81.9388 87.338 82.6782 87.0754C83.4144 86.814 87.1805 85.56 89.8347 82.0253L70.6429 67.6144C71.8416 66.018 73.138 65.2212 73.6251 64.9427C74.1916 64.6188 74.5951 64.4775 74.6462 64.4594C74.7285 64.4301 74.7179 64.4382 74.5336 64.4882C74.4474 64.5116 74.3515 64.5366 74.2103 64.5731C74.0954 64.6028 73.8878 64.6561 73.6951 64.7078L79.9181 87.887ZM89.8347 82.0253C90.9471 80.5439 92.1657 78.2184 92.3083 75.1797C92.4547 72.0583 91.4055 69.4732 90.1787 67.6758C88.1309 64.6755 85.3609 63.4658 84.6889 63.1717C82.8282 62.3576 80.9428 62.0215 79.5607 61.9439L78.2149 85.9061C77.2423 85.8515 76.2483 85.6754 75.0686 85.1592C74.7371 85.0142 72.255 83.9879 70.356 81.2057C69.2036 79.5174 68.1941 77.0499 68.3346 74.0549C68.4713 71.1426 69.6384 68.9521 70.6429 67.6144L89.8347 82.0253ZM79.5607 61.9439C75.2838 61.7037 71.5775 63.407 70.927 63.6796L80.2035 85.8144C80.6108 85.6437 80.6158 85.6565 80.462 85.7004C80.3614 85.729 80.1257 85.7914 79.7814 85.8421C79.4398 85.8923 78.9005 85.9446 78.2149 85.9061L79.5607 61.9439ZM70.927 63.6796C72.1952 63.1481 70.0042 64.0334 69.296 64.387C68.8835 64.593 67.3317 65.3614 65.8416 66.8054C65.1028 67.5214 63.5141 69.2187 62.6473 71.9461C61.5887 75.2773 61.9731 79.0632 64.0182 82.2364L84.1913 69.2346C86.1711 72.3065 86.5455 75.9884 85.5202 79.2146C84.6868 81.8372 83.1748 83.4287 82.5439 84.04C81.2699 85.2747 80.0595 85.8381 80.0181 85.8588C79.8538 85.9408 79.7322 85.9942 79.6733 86.0195C79.6102 86.0466 79.5715 86.0617 79.568 86.063C79.566 86.0638 79.572 86.0614 79.6317 86.0391C79.6491 86.0326 79.7129 86.0088 79.774 85.9856C79.8097 85.972 79.99 85.9039 80.2035 85.8144L70.927 63.6796ZM64.0182 82.2364C65.8263 85.0419 68.2881 86.4409 69.9771 87.1055C71.5958 87.7424 73.0054 87.9129 73.7358 87.9748C74.5244 88.0416 75.1778 88.0287 75.4457 88.0222C76.0561 88.0076 75.5666 88.0165 75.5165 88.0165V64.0165C75.2628 64.0165 74.5254 64.0374 74.871 64.0291C74.8739 64.0291 75.2455 64.0167 75.7626 64.0605C76.2214 64.0994 77.3696 64.2232 78.7644 64.7721C80.2295 65.3485 82.5049 66.618 84.1913 69.2346L64.0182 82.2364Z" fill="#FEC786"/>
</g>
<path d="M147.526 77.6289C147.526 76.5117 147.354 75.5091 147.011 74.6211C146.696 73.7044 146.094 72.8737 145.206 72.1289C144.318 71.3555 143.072 70.5964 141.468 69.8516C139.864 69.1068 137.787 68.3333 135.237 67.5312C132.401 66.6146 129.709 65.5833 127.159 64.4375C124.638 63.2917 122.404 61.9596 120.456 60.4414C118.537 58.8945 117.019 57.1042 115.901 55.0703C114.813 53.0365 114.269 50.6732 114.269 47.9805C114.269 45.3737 114.841 43.0104 115.987 40.8906C117.133 38.7422 118.737 36.9089 120.8 35.3906C122.862 33.8438 125.297 32.6549 128.104 31.8242C130.94 30.9935 134.048 30.5781 137.429 30.5781C142.041 30.5781 146.065 31.4089 149.503 33.0703C152.94 34.7318 155.604 37.0091 157.495 39.9023C159.414 42.7956 160.374 46.1042 160.374 49.8281H147.569C147.569 47.9948 147.183 46.3906 146.409 45.0156C145.664 43.612 144.519 42.5091 142.972 41.707C141.453 40.9049 139.534 40.5039 137.214 40.5039C134.979 40.5039 133.117 40.8477 131.628 41.5352C130.138 42.194 129.021 43.0964 128.276 44.2422C127.532 45.3594 127.159 46.6198 127.159 48.0234C127.159 49.0833 127.417 50.043 127.933 50.9023C128.477 51.7617 129.279 52.5638 130.339 53.3086C131.399 54.0534 132.702 54.7552 134.249 55.4141C135.796 56.0729 137.586 56.7174 139.62 57.3477C143.029 58.3789 146.022 59.5391 148.601 60.8281C151.207 62.1172 153.384 63.5638 155.132 65.168C156.879 66.7721 158.197 68.5911 159.085 70.625C159.973 72.6589 160.417 74.9648 160.417 77.543C160.417 80.2643 159.887 82.6992 158.827 84.8477C157.767 86.9961 156.235 88.8151 154.229 90.3047C152.224 91.7943 149.832 92.9258 147.054 93.6992C144.275 94.4727 141.167 94.8594 137.729 94.8594C134.636 94.8594 131.585 94.4583 128.577 93.6562C125.569 92.8255 122.834 91.5794 120.37 89.918C117.935 88.2565 115.987 86.1367 114.526 83.5586C113.065 80.9805 112.335 77.9297 112.335 74.4062H125.269C125.269 76.3542 125.569 78.0013 126.171 79.3477C126.772 80.694 127.617 81.7826 128.706 82.6133C129.823 83.444 131.141 84.0456 132.659 84.418C134.206 84.7904 135.896 84.9766 137.729 84.9766C139.964 84.9766 141.797 84.6615 143.229 84.0312C144.69 83.401 145.765 82.5273 146.452 81.4102C147.168 80.293 147.526 79.0326 147.526 77.6289ZM194.62 42.1367L177.604 94H163.897L187.144 31.4375H195.866L194.62 42.1367ZM208.757 94L191.698 42.1367L190.323 31.4375H199.132L222.507 94H208.757ZM207.983 70.7109V80.8086H174.94V70.7109H207.983ZM268.526 83.9453V94H237.03V83.9453H268.526ZM241.198 31.4375V94H228.308V31.4375H241.198ZM316.136 83.9453V94H284.64V83.9453H316.136ZM288.808 31.4375V94H275.917V31.4375H288.808ZM320.604 31.4375L333.667 59.9688L346.729 31.4375H360.78L340.198 71.2266V94H327.136V71.2266L306.511 31.4375H320.604Z" fill="white" fill-opacity="0.87"/>
</svg>
